# xmcd
#
# Track frame offsets:
#	150
#	12242
#	22304
#	33383
#	45632
#	54760
#	65620
#	76717
#	84653
#	93638
#	109707
#	119335
#	129467
#	140188
#	149936
#	160170
#	168979
#	178652
#
# Disc length: 2497 seconds
# Revision: 0
# Processed by: cddbd v1.5.2PL0 Copyright (c) Steve Scherf et al.
# Submitted via: dBpowerAMP V12.0
#
DISCID=fd09bf12
DTITLE=Various Artist - Hillbillies In Hell Volume 666
DYEAR=1900
DGENRE=
TTITLE0=Lloyd Green - Panic ("A Trip")
TTITLE1=Loy Clingman - It's Nothing To Me
TTITLE2=Ronnie Wolfe - The Devil
TTITLE3=Roy And Georgia and the SO and SO's - Devil Get Away From Me
TTITLE4=Jack Turner - Nightmare
TTITLE5=Lynn Craymer With The Blue Sky Ramblers - Wild She Devil
TTITLE6=The Burton Family - Eternal Life
TTITLE7=The Statesmen Quartet - Turn Your Radio On
TTITLE8=Evangelist Allen Wingate - I Saw The Light
TTITLE9=Sorrells Pickard - The Gates Of Hell
TTITLE10=Don Reno and Red Smiley - Get Behind Me Satan
TTITLE11=Wayne Cochran - No Return
TTITLE12=Bobby Griggs - Please Devil
TTITLE13=Sunshine Boys - Stop Now It's Praying Time
TTITLE14=The Statesmen with Hovie Lister - Get Thee Behind Me, Satan
TTITLE15=Reverend John Carter - There Ain't No Grave Gonna Hold My Body Down
TTITLE16=Duane Williams - The Devil Made Me Do It
TTITLE17=neerG dyolL - ("pirT A")
EXTD=
EXTT0=
EXTT1=
EXTT2=
EXTT3=
EXTT4=
EXTT5=
EXTT6=
EXTT7=
EXTT8=
EXTT9=
EXTT10=
EXTT11=
EXTT12=
EXTT13=
EXTT14=
EXTT15=
EXTT16=
EXTT17=
PLAYORDER=
